<svg xmlns="http://www.w3.org/2000/svg" viewBox="0 0 872.99 220.96"><defs><style>.a{fill:#053670;}.b{fill:none;stroke:#022454;stroke-miterlimit:10;stroke-width:3px;}.c{fill:#022454;}</style></defs><title>Pegas logo (для web)</title><path class="a" d="M315.17,289.55c6.54-36.47,32.65-52.2,72.67-42.84-7.73,6.9-4.34,13.25-.24,20.26,3.56,6.08,6.48,17.37,7.49,24.19.56,3.79-1.71,6.29-4.92,8.77-5,3.85-8.24-2.76-10.92-5.85a16.64,16.64,0,0,0-7.55-4.83c-4.12-1.47-5.34,2.15-12-5.23l-2.22,2.67c4.47,4.74,9.81,8.93,13.21,14.34,6.45,10.25,15.75,20.84,16.78,31.94,2.45,26.61.79,53.6-.24,81.16C313,279.52,194.86,214.19,46.87,194.45c22.55,0,45.11-.13,67.66,0q99,.63,197.92,1.52c8.59.08,17.49.06,25.63,2.33,5.41,1.5,12,6.12,13.81,10.94,1.53,4.07-1.76,11.57-5.23,15.54-6.6,7.55-15.22,13.29-22.33,20.44C313,256.64,309.24,276.46,315.17,289.55Z" transform="translate(-46.87 -194.4)"/><path class="b" d="M419.49,409.11V334a11,11,0,0,1,3.21-7.83,10.61,10.61,0,0,1,8-3.33h4.23a12.08,12.08,0,0,1,3.34.57c1.28.39,2.6,1.52,4,3.41q7.57,11.81,13.61,21.3,3.72,5.77,5.84,9.17t4,6.29c1.28,1.93,2.35,3.57,3.21,4.94s1.36,2.18,1.54,2.44c0,.17.17.26.51.26a.57.57,0,0,0,.64-.65V334a10.3,10.3,0,0,1,3.47-8.08,11.42,11.42,0,0,1,7.82-3.08h8.22a3.13,3.13,0,0,1,2.31.9,3.94,3.94,0,0,1,.89,2.43V409a3.8,3.8,0,0,1-.89,2.31,3.19,3.19,0,0,1-2.31,1H476.6a4.88,4.88,0,0,1-4.37-2.44q-7.69-11.81-13.86-21.17-3.72-5.64-5.9-9c-1.46-2.26-2.82-4.36-4.11-6.29s-2.35-3.55-3.2-4.87l-1.54-2.38a1.1,1.1,0,0,0-.65-.38.57.57,0,0,0-.64.64v42.73a2.94,2.94,0,0,1-1,2.31,3.43,3.43,0,0,1-2.31.9H422.7a3.57,3.57,0,0,1-3.21-3.21Z" transform="translate(-46.87 -194.4)"/><path class="b" d="M512,409.24V334.17a10.53,10.53,0,0,1,3.34-8,11,11,0,0,1,7.83-3.14h52.36a3.5,3.5,0,0,1,3.33,3.33v12.71a2.57,2.57,0,0,1-1,2.18,3.14,3.14,0,0,1-2.31.9H528.05a6.52,6.52,0,0,1,5.07,2.18,6.9,6.9,0,0,1,2,4.75v5.39a4.21,4.21,0,0,0,1,2.69,3.54,3.54,0,0,0,3,1.28h27.85c2.22,0,3.33,1.12,3.33,3.34v11.55q0,3.35-3.33,3.34H528.05a6.81,6.81,0,0,1,5,2.05,6.38,6.38,0,0,1,2.05,4.62v6a4.12,4.12,0,0,0,1.09,2.7,3.62,3.62,0,0,0,2.89,1.28h37.47a3.26,3.26,0,0,1,2.38,1,3.22,3.22,0,0,1,1,2.37v12.58a3,3,0,0,1-1,2.31,3.42,3.42,0,0,1-2.31.9H515.22a3.08,3.08,0,0,1-3.21-3.21Z" transform="translate(-46.87 -194.4)"/><path class="b" d="M669.85,411.68a2.61,2.61,0,0,1-1.92.77H650A5.37,5.37,0,0,1,644.7,409l-13-25.66a3.73,3.73,0,0,0-3.46-2.05H611.34a6.29,6.29,0,0,1,5.19,2.31,7.24,7.24,0,0,1,1.87,4.49v21.17a3.09,3.09,0,0,1-.9,2.37,3.43,3.43,0,0,1-2.44.84H597.61a3.1,3.1,0,0,1-2.31-.9,3.13,3.13,0,0,1-.9-2.31V334.17a10.62,10.62,0,0,1,3.33-8,11,11,0,0,1,7.83-3.2h27.21a56.62,56.62,0,0,1,13.66,1.6,33.16,33.16,0,0,1,11.36,5.07,25.51,25.51,0,0,1,7.83,9.05,28.59,28.59,0,0,1,3,13.53,28.88,28.88,0,0,1-3.27,14A24.83,24.83,0,0,1,655,376.13a2.13,2.13,0,0,0-1,1.67,3.19,3.19,0,0,0,.26,1.41l16,29.13a3.18,3.18,0,0,1,.38,1.41A3.26,3.26,0,0,1,669.85,411.68ZM643.8,352.14q0-5.26-3-8a11.61,11.61,0,0,0-8.15-2.76H610.57a6.29,6.29,0,0,1,5,2.24,7.11,7.11,0,0,1,1.93,4.69v10.26a3.94,3.94,0,0,0,4,4h11.17a12.12,12.12,0,0,0,8.15-2.57Q643.8,357.4,643.8,352.14Z" transform="translate(-46.87 -194.4)"/><path class="b" d="M683.07,378.57v-44.4a10.12,10.12,0,0,1,1-4.62,11.14,11.14,0,0,1,2.63-3.46,11.83,11.83,0,0,1,3.59-2.19,10.87,10.87,0,0,1,3.91-.77h9.5a3.3,3.3,0,0,1,3.34,3.34v51.84q0,7.32,3.53,11.62t11.1,4.3q7.56,0,11-4.37t3.47-11.55V334.17a9.94,9.94,0,0,1,1.09-4.75A12,12,0,0,1,740,326a10.94,10.94,0,0,1,3.6-2.12,11.28,11.28,0,0,1,3.78-.71h9.5a3.3,3.3,0,0,1,3.33,3.34v52.1a41.9,41.9,0,0,1-2.69,15.78,27.86,27.86,0,0,1-7.76,11,33.38,33.38,0,0,1-12.13,6.41,54.92,54.92,0,0,1-15.78,2.12A57,57,0,0,1,706,411.81a32.57,32.57,0,0,1-12.26-6.42,28.54,28.54,0,0,1-7.89-11A41.08,41.08,0,0,1,683.07,378.57Z" transform="translate(-46.87 -194.4)"/><path class="b" d="M776.88,409.5V334.43a10.42,10.42,0,0,1,3.4-8,11.08,11.08,0,0,1,7.76-3.15h25.67a60,60,0,0,1,15.84,2,34.67,34.67,0,0,1,12.64,6.29,29.72,29.72,0,0,1,8.47,10.91A39.45,39.45,0,0,1,854,358.17c.08,1.2.13,2.63.13,4.3v11c0,1.62,0,3-.13,4.23q-1.15,35-39.65,35H780.08a3.07,3.07,0,0,1-3.2-3.21Zm36.83-15.91q8.34,0,12.06-4t3.85-12.12c.08-1.2.15-2.59.19-4.17s.07-3.36.07-5.33,0-3.74-.07-5.33-.11-3-.19-4.17q-.39-16-16.56-16H793.81a6.73,6.73,0,0,1,5,2.12,6.45,6.45,0,0,1,2,4.56v40.55a4,4,0,0,0,1.09,2.82,3.8,3.8,0,0,0,2.89,1.16Z" transform="translate(-46.87 -194.4)"/><path class="a" d="M494.14,229.56a31.17,31.17,0,0,1-2.92,14.14,24.87,24.87,0,0,1-7.91,9.3,32.48,32.48,0,0,1-11.62,5.05,63.17,63.17,0,0,1-14.21,1.53H446.32a4.07,4.07,0,0,0-2.79,1.06,3.73,3.73,0,0,0-1.19,2.92v24.57a3.4,3.4,0,0,1-3.32,3.32H420a3.19,3.19,0,0,1-2.32-1,3.22,3.22,0,0,1-1-2.33v-77.7a11.25,11.25,0,0,1,1.07-5,10.83,10.83,0,0,1,2.78-3.65,12.1,12.1,0,0,1,3.72-2.19,11.47,11.47,0,0,1,4-.73h29.22a59.09,59.09,0,0,1,14.28,1.66,32.7,32.7,0,0,1,11.69,5.31,25.33,25.33,0,0,1,7.83,9.5A32,32,0,0,1,494.14,229.56Zm-25.77-.13c0-3.72-1-6.58-3-8.57s-4.85-3-8.56-3H434.37a7.59,7.59,0,0,1,2.39.46,8.4,8.4,0,0,1,2.46,1.4,8.3,8.3,0,0,1,1.92,2.32,6.19,6.19,0,0,1,.8,3.12V236.6a3.83,3.83,0,0,0,1.26,3,4.18,4.18,0,0,0,2.86,1.13h10.76q5.44,0,8.5-2.93T468.37,229.43Z" transform="translate(-46.87 -194.4)"/><path class="a" d="M505.56,288.27V210.56a10.92,10.92,0,0,1,3.45-8.3,11.46,11.46,0,0,1,8.11-3.25h54.19a3.63,3.63,0,0,1,3.45,3.45v13.15a2.64,2.64,0,0,1-1.06,2.26,3.24,3.24,0,0,1-2.39.93H522.16a6.77,6.77,0,0,1,5.25,2.26,7.16,7.16,0,0,1,2.06,4.91v5.58a4.37,4.37,0,0,0,1.06,2.79,3.68,3.68,0,0,0,3.06,1.33h28.82q3.45,0,3.45,3.45v12q0,3.45-3.45,3.45H522.16a7.05,7.05,0,0,1,5.18,2.12,6.61,6.61,0,0,1,2.13,4.79v6.24a4.24,4.24,0,0,0,1.13,2.79,3.73,3.73,0,0,0,3,1.33h38.78a3.38,3.38,0,0,1,3.45,3.45v13a3,3,0,0,1-1.06,2.39,3.55,3.55,0,0,1-2.39.93H508.88a3.19,3.19,0,0,1-3.32-3.32Z" transform="translate(-46.87 -194.4)"/><path class="a" d="M588,256.12c-.09-1.24-.13-2.85-.13-4.85V236.86c0-2,0-3.67.13-4.91a36.84,36.84,0,0,1,3.66-15.81,31.39,31.39,0,0,1,9-10.89,38.13,38.13,0,0,1,13-6.31,59.63,59.63,0,0,1,15.94-2.06,65.21,65.21,0,0,1,10,.8,55,55,0,0,1,10,2.52,42.83,42.83,0,0,1,9.09,4.52,31.76,31.76,0,0,1,7.44,6.77q5.05,6.38,5.18,13.15a3,3,0,0,1-2.92,2.93H648a2.82,2.82,0,0,1-2-.54,4.16,4.16,0,0,1-1.46-1.32,13.9,13.9,0,0,0-2.06-3.39,24.7,24.7,0,0,0-3-3q-3.74-2.66-9.83-2.66-15.29,0-15.94,15.94c-.09,1.24-.14,2.79-.14,4.65v13.42c0,1.95.05,3.54.14,4.78q.26,8.37,4.25,12.55t13.94,4.18c2.13,0,3.86-.06,5.18-.19a16.24,16.24,0,0,0,3.39-.67,8.75,8.75,0,0,0,2.39-1.19c.67-.49,1.4-1,2.19-1.66a12.7,12.7,0,0,0,3.86-6.51,9.44,9.44,0,0,1,4.18-5.91,11.14,11.14,0,0,1,2.79-1.27,8.93,8.93,0,0,1,2.32-.39H634.66a3.07,3.07,0,0,1-2.45-1,3.59,3.59,0,0,1-.87-2.46v-2.26a12.3,12.3,0,0,1,.73-4.05,10.68,10.68,0,0,1,2.19-3.65,12.35,12.35,0,0,1,3.59-2.66,11,11,0,0,1,4.92-1.06h19.65q4.92,0,7.11,2.59a10.46,10.46,0,0,1,2.19,7V256a35.73,35.73,0,0,1-3.45,16.27A32,32,0,0,1,659,283.48,39.28,39.28,0,0,1,645.62,290a62.17,62.17,0,0,1-32.27,0,36.4,36.4,0,0,1-13-6.51,31.13,31.13,0,0,1-8.77-11.22A40,40,0,0,1,588,256.12Z" transform="translate(-46.87 -194.4)"/><path class="a" d="M679.42,291.06a3.41,3.41,0,0,1-.79-2,3.26,3.26,0,0,1,.13-1.19l30.81-84.74a5.34,5.34,0,0,1,5.32-3.86h20.58a5.34,5.34,0,0,1,5.32,3.86l30.81,84.74a3.19,3.19,0,0,1,.14,1.19,3,3,0,0,1-2.79,2.79H751.81a4.45,4.45,0,0,1-4.51-2.92l-6.91-18.73a77.28,77.28,0,0,1-9.7,3.06,90.8,90.8,0,0,1-9.49,1.79c-3.06.4-5.91.66-8.57.8s-5,.2-6.91.2h-3.19a10.73,10.73,0,0,1-2-.14,5.38,5.38,0,0,1,4.05,2.59,5.58,5.58,0,0,1,.33,5.38l-1.85,5.05a4.47,4.47,0,0,1-4.52,2.92H681.42A3.38,3.38,0,0,1,679.42,291.06Zm33.74-34q3.72-.26,7.7-.93a70.1,70.1,0,0,0,7.24-1.52,33,33,0,0,0,7.24-2.86l-10.23-29.22Z" transform="translate(-46.87 -194.4)"/><path class="a" d="M857.54,263.69a24.42,24.42,0,0,1-3.72,13.75,28.23,28.23,0,0,1-9.57,9,44,44,0,0,1-13,4.92,67.42,67.42,0,0,1-14,1.52,82,82,0,0,1-9.69-.59,48.41,48.41,0,0,1-9.77-2.19,43.36,43.36,0,0,1-8.9-4.19,25.14,25.14,0,0,1-7.1-6.57,21.65,21.65,0,0,1-4.92-13.15,2.74,2.74,0,0,1,.8-2,3.54,3.54,0,0,1,2.13-.79h17.53a5.86,5.86,0,0,1,2.72.53,7,7,0,0,1,2.06,1.86,12.33,12.33,0,0,0,6.44,5.78,24.41,24.41,0,0,0,8.7,1.52,35.34,35.34,0,0,0,4.52-.33,21.31,21.31,0,0,0,4.78-1.19,11,11,0,0,0,3.85-2.46,5.76,5.76,0,0,0,1.6-4.25,5.53,5.53,0,0,0-2.79-5.11,29.1,29.1,0,0,0-5.58-2.6c-1.42-.44-3.17-.92-5.25-1.46s-4.49-1.1-7.24-1.72a101.27,101.27,0,0,1-11.82-3.06,36.85,36.85,0,0,1-10.16-5.05,23.09,23.09,0,0,1-9.9-20,23.8,23.8,0,0,1,3.39-13,27.91,27.91,0,0,1,8.7-8.77,37.87,37.87,0,0,1,11.89-4.91,57.51,57.51,0,0,1,13.08-1.53,55.45,55.45,0,0,1,9.23.8,45.23,45.23,0,0,1,9.1,2.52,39.09,39.09,0,0,1,8.17,4.38,31.92,31.92,0,0,1,6.71,6.38c3,4,4.6,7.93,4.78,11.82a3.56,3.56,0,0,1-.8,2.13,2.69,2.69,0,0,1-2,.79H833.1a5.1,5.1,0,0,1-4.52-2.39,6.7,6.7,0,0,0-1.86-3.12,9.86,9.86,0,0,0-3.12-2,17.67,17.67,0,0,0-3.65-1.06,20.62,20.62,0,0,0-3.59-.34,31.07,31.07,0,0,0-4.05.27,11.07,11.07,0,0,0-3.72,1.13,8,8,0,0,0-2.79,2.39,6.44,6.44,0,0,0-1.13,3.92c0,2.57,1.33,4.6,4,6.11s7.57,2.88,14.74,4.38A119.89,119.89,0,0,1,836,238.59a40.62,40.62,0,0,1,11,4.78,24,24,0,0,1,7.71,7.9Q857.53,256.13,857.54,263.69Z" transform="translate(-46.87 -194.4)"/><rect class="c" x="825.31" y="108.68" width="47.69" height="8.95" rx="1.3" ry="1.3"/></svg>