<?xml version="1.0" encoding="UTF-8"?>
<svg width="1333.3" height="853.33" version="1.1" viewBox="0 0 1333.3333 853.33331" xml:space="preserve" xmlns="http://www.w3.org/2000/svg" xmlns:cc="http://creativecommons.org/ns#" xmlns:dc="http://purl.org/dc/elements/1.1/" xmlns:rdf="http://www.w3.org/1999/02/22-rdf-syntax-ns#"><metadata><rdf:RDF><cc:Work rdf:about=""><dc:format>image/svg+xml</dc:format><dc:type rdf:resource="http://purl.org/dc/dcmitype/StillImage"/></cc:Work></rdf:RDF></metadata><defs><clipPath id="b"><path d="m0 640h1e3v-640h-1e3z"/></clipPath><clipPath id="a"><path d="m0 640h1e3v-640h-1e3z"/></clipPath></defs><g transform="matrix(1.3333 0 0 -1.3333 0 853.33)"><g clip-path="url(#b)"><g transform="translate(315.17 350.45)"><path d="m0 0c6.54 36.473 32.655 52.205 72.667 42.843-7.723-6.905-4.332-13.257-0.233-20.26 3.556-6.078 6.481-17.377 7.489-24.188 0.562-3.798-1.714-6.297-4.92-8.777-4.967-3.843-8.244 2.76-10.921 5.849-2.437 2.812-5.187 4-7.545 4.838-4.121 1.464-5.343-2.157-11.982 5.226-0.742-0.891-1.484-1.783-2.226-2.676 4.468-4.737 9.817-8.922 13.216-14.331 6.445-10.253 15.749-20.843 16.772-31.946 2.452-26.611 0.793-53.6-0.234-81.159-74.249 134.61-192.4 199.94-340.38 219.68 22.554 0 45.109 0.122 67.661-0.022 65.976-0.423 131.95-0.886 197.92-1.518 8.586-0.082 17.49-0.067 25.627-2.33 5.41-1.504 12.005-6.12 13.814-10.941 1.527-4.068-1.768-11.575-5.236-15.541-6.6-7.549-15.22-13.288-22.329-20.445-11.315-11.392-15.088-31.218-9.161-44.307" fill="#053670"/></g><g transform="translate(419.49 230.89)"><path d="m0 0v75.071c0 2.993 1.07 5.602 3.209 7.827 2.137 2.224 4.79 3.337 7.957 3.337h4.234c0.94 0 2.053-0.193 3.336-0.577 1.284-0.387 2.608-1.52 3.978-3.401 5.047-7.872 9.58-14.972 13.603-21.302 2.48-3.851 4.427-6.91 5.838-9.176 1.412-2.268 2.76-4.363 4.042-6.288 1.284-1.924 2.352-3.574 3.209-4.94 0.854-1.37 1.367-2.182 1.54-2.438 0-0.174 0.17-0.257 0.513-0.257 0.427 0 0.642 0.213 0.642 0.642v36.573c0 3.336 1.155 6.03 3.465 8.083 2.309 2.054 4.918 3.081 7.828 3.081h8.212c0.941 0 1.71-0.301 2.311-0.898 0.596-0.771 0.897-1.585 0.897-2.439v-82.77c0-0.771-0.301-1.54-0.897-2.31-0.687-0.686-1.456-1.026-2.311-1.026h-14.5c-1.884 0-3.337 0.811-4.364 2.437-5.133 7.871-9.752 14.928-13.859 21.174-2.483 3.764-4.448 6.78-5.903 9.048-1.456 2.266-2.822 4.363-4.106 6.288s-2.353 3.548-3.207 4.876c-0.857 1.326-1.371 2.117-1.541 2.374-0.256 0.256-0.472 0.384-0.643 0.384-0.428 0-0.641-0.214-0.641-0.641v-42.732c0-0.942-0.342-1.712-1.026-2.31-0.686-0.6-1.455-0.898-2.31-0.898h-16.297c-0.771 0-1.498 0.34-2.182 1.026-0.686 0.684-1.027 1.411-1.027 2.182z" fill="none" stroke="#022454" stroke-miterlimit="10" stroke-width="1.4"/></g><g transform="translate(512.01 230.76)"><path d="m0 0v75.071c0 3.25 1.111 5.923 3.338 8.019 2.224 2.096 4.832 3.145 7.828 3.145h52.356c0.855 0 1.624-0.342 2.31-1.027 0.684-0.685 1.026-1.456 1.026-2.31v-12.704c0-0.943-0.342-1.669-1.026-2.182-0.6-0.598-1.369-0.897-2.31-0.897h-47.48c2.053 0 3.74-0.729 5.068-2.182 1.327-1.455 1.989-3.038 1.989-4.749v-5.389c0-0.942 0.341-1.84 1.027-2.694 0.684-0.857 1.669-1.284 2.951-1.284h27.847c2.223 0 3.337-1.113 3.337-3.337v-11.549c0-2.226-1.114-3.337-3.337-3.337h-38.882c1.967 0 3.634-0.684 5.004-2.053 1.368-1.37 2.053-2.909 2.053-4.62v-6.031c0-0.943 0.363-1.84 1.091-2.694 0.726-0.857 1.688-1.284 2.887-1.284h37.472c0.939 0 1.732-0.321 2.374-0.962 0.642-0.642 0.963-1.434 0.963-2.374v-12.576c0-0.942-0.344-1.713-1.028-2.31-0.686-0.6-1.456-0.898-2.309-0.898h-61.34c-0.942 0-1.712 0.298-2.31 0.898-0.6 0.597-0.899 1.368-0.899 2.31z" fill="none" stroke="#022454" stroke-miterlimit="10" stroke-width="1.4"/></g><g transform="translate(643.8 287.86)"><path d="m0 0c0 3.506-1.007 6.18-3.017 8.021-2.01 1.837-4.726 2.758-8.147 2.758h-22.072c2.053 0 3.721-0.75 5.004-2.245 1.284-1.498 1.925-3.06 1.925-4.684v-10.267c0-1.112 0.384-2.053 1.156-2.822 0.769-0.771 1.709-1.156 2.822-1.156h11.165c3.421 0 6.137 0.854 8.147 2.567 2.01 1.71 3.017 4.319 3.017 7.828zm26.05-59.544c-0.513-0.513-1.154-0.769-1.925-0.769h-17.965c-2.483 0-4.235 1.155-5.262 3.465l-12.961 25.664c-0.769 1.368-1.924 2.054-3.465 2.054h-16.939c2.224 0 3.956-0.77 5.198-2.31 1.239-1.54 1.861-3.038 1.861-4.491v-21.174c0-1.027-0.302-1.818-0.899-2.374-0.599-0.558-1.411-0.834-2.438-0.834h-17.452c-0.943 0-1.712 0.298-2.31 0.898-0.599 0.597-0.898 1.368-0.898 2.31v75.071c0 3.164 1.11 5.816 3.337 7.955 2.223 2.138 4.832 3.209 7.828 3.209h27.205c4.79 0 9.345-0.536 13.666-1.604 4.319-1.071 8.105-2.759 11.357-5.068 3.25-2.311 5.859-5.327 7.827-9.048 1.967-3.721 2.953-8.235 2.953-13.538 0-5.306-1.092-9.968-3.274-13.988-2.181-4.022-5.626-7.314-10.33-9.882-0.685-0.513-1.025-1.069-1.025-1.667 0-0.6 0.083-1.071 0.256-1.412l16.04-29.13c0.257-0.513 0.385-0.985 0.385-1.412 0-0.599-0.256-1.24-0.77-1.925z" fill="none" stroke="#022454" stroke-miterlimit="10" stroke-width="1.4"/></g><g transform="translate(683.07 261.43)"><path d="m0 0v44.402c0 1.709 0.342 3.249 1.026 4.619 0.685 1.367 1.561 2.523 2.632 3.464 1.069 0.941 2.265 1.669 3.592 2.182 1.326 0.514 2.632 0.771 3.914 0.771h9.497c0.941 0 1.733-0.321 2.374-0.964 0.641-0.641 0.962-1.433 0.962-2.374v-51.844c0-4.876 1.176-8.747 3.529-11.612 2.352-2.868 6.052-4.299 11.1-4.299s8.728 1.453 11.037 4.363c2.31 2.907 3.464 6.757 3.464 11.548v44.146c0 1.795 0.363 3.378 1.092 4.747 0.725 1.368 1.623 2.523 2.694 3.464 1.069 0.942 2.266 1.647 3.593 2.117 1.325 0.47 2.587 0.708 3.786 0.708h9.495c0.942 0 1.734-0.321 2.374-0.964 0.643-0.641 0.964-1.433 0.964-2.374v-52.1c0-6.075-0.899-11.336-2.695-15.784-1.796-4.45-4.386-8.106-7.764-10.971-3.381-2.868-7.423-5.006-12.127-6.418-4.705-1.41-9.968-2.117-15.783-2.117-5.82 0-11.102 0.686-15.85 2.053-4.747 1.369-8.835 3.508-12.255 6.417-3.422 2.908-6.053 6.586-7.892 11.036-1.84 4.448-2.759 9.709-2.759 15.784z" fill="none" stroke="#022454" stroke-miterlimit="10" stroke-width="1.4"/></g><g transform="translate(813.71 246.41)"><path d="m0 0c5.56 0 9.58 1.348 12.063 4.042 2.48 2.695 3.763 6.737 3.849 12.127 0.084 1.197 0.149 2.587 0.192 4.171 0.042 1.581 0.065 3.356 0.065 5.325 0 1.967-0.023 3.742-0.065 5.326-0.043 1.583-0.108 2.971-0.192 4.171-0.257 10.693-5.774 16.041-16.555 16.041h-19.249c1.968 0 3.637-0.707 5.006-2.118 1.367-1.412 2.054-2.931 2.054-4.556v-40.55c0-1.114 0.362-2.054 1.09-2.823 0.725-0.771 1.688-1.156 2.888-1.156zm-36.83-15.912v75.07c0 3.251 1.134 5.924 3.401 8.021 2.266 2.095 4.854 3.144 7.764 3.144h25.665c5.73 0 11.014-0.664 15.848-1.989 4.832-1.327 9.048-3.423 12.639-6.288 3.594-2.867 6.416-6.502 8.47-10.907 2.054-4.408 3.165-9.647 3.337-15.721 0.085-1.199 0.128-2.63 0.128-4.299v-10.971c0-1.627-0.043-3.039-0.128-4.235-0.77-23.355-13.988-35.033-39.652-35.033h-34.263c-0.942 0-1.712 0.299-2.31 0.897-0.6 0.598-0.899 1.369-0.899 2.311z" fill="none" stroke="#022454" stroke-miterlimit="10" stroke-width="1.4"/></g></g><text transform="matrix(1 0 0 -1 407.01 348.15)" fill="#053670" font-family="Bold" font-size="132.82px" font-weight="bold"><tspan x="0 89.389946 174.66238 270.56067 366.1933" y="0">Pegas</tspan></text>
<g clip-path="url(#a)"><g transform="translate(918.56 327.98)"><path d="m0 0h-45.085c-0.719 0-1.302 0.583-1.302 1.302v6.343c0 0.718 0.583 1.301 1.302 1.301h45.085c0.719 0 1.302-0.583 1.302-1.301v-6.343c0-0.719-0.583-1.302-1.302-1.302" fill="#022454"/></g></g></g></svg>
